<mxfile host="app.diagrams.net" modified="2021-03-24T03:43:42.612Z" agent="5.0 (Windows NT 10.0; WOW64) AppleWebKit/537.36 (KHTML, like Gecko) Chrome/83.0.4103.61 Safari/537.36" etag="yco_x0v1evpq7X97joj-" version="14.5.1" type="github">
  <diagram id="f69riF0zE2jX6KAI8v3U" name="Page-1">
    <mxGraphModel dx="2272" dy="782" grid="1" gridSize="10" guides="1" tooltips="1" connect="1" arrows="1" fold="1" page="1" pageScale="1" pageWidth="850" pageHeight="1100" math="0" shadow="0">
      <root>
        <mxCell id="0" />
        <mxCell id="1" parent="0" />
        <mxCell id="H5RYmZ8kcxVcwlqUMl1A-1" value="" style="ellipse;whiteSpace=wrap;html=1;dashed=1;" parent="1" vertex="1">
          <mxGeometry x="-250" y="239" width="520" height="330" as="geometry" />
        </mxCell>
        <mxCell id="H5RYmZ8kcxVcwlqUMl1A-2" value="" style="image;html=1;image=img/lib/clip_art/computers/Database_128x128.png;dashed=1;" parent="1" vertex="1">
          <mxGeometry x="-20" y="379" width="55" height="50" as="geometry" />
        </mxCell>
        <mxCell id="H5RYmZ8kcxVcwlqUMl1A-27" value="" style="edgeStyle=none;rounded=0;orthogonalLoop=1;jettySize=auto;html=1;startArrow=classic;startFill=1;endArrow=none;endFill=0;entryX=0.075;entryY=0.78;entryDx=0;entryDy=0;entryPerimeter=0;" parent="1" source="H5RYmZ8kcxVcwlqUMl1A-3" target="g5TiDb2rSoXXwQeDszKe-1" edge="1">
          <mxGeometry relative="1" as="geometry" />
        </mxCell>
        <mxCell id="H5RYmZ8kcxVcwlqUMl1A-3" value="USER SEARCH/RESULT" style="rounded=0;whiteSpace=wrap;html=1;" parent="1" vertex="1">
          <mxGeometry x="-410" y="490" width="120" height="60" as="geometry" />
        </mxCell>
        <mxCell id="H5RYmZ8kcxVcwlqUMl1A-4" value="USERS" style="rounded=0;whiteSpace=wrap;html=1;" parent="1" vertex="1">
          <mxGeometry x="320" y="334" width="120" height="60" as="geometry" />
        </mxCell>
        <mxCell id="H5RYmZ8kcxVcwlqUMl1A-31" value="" style="edgeStyle=none;rounded=0;orthogonalLoop=1;jettySize=auto;html=1;startArrow=classic;startFill=1;endArrow=classic;endFill=1;exitX=0;exitY=0.75;exitDx=0;exitDy=0;" parent="1" source="H5RYmZ8kcxVcwlqUMl1A-4" target="H5RYmZ8kcxVcwlqUMl1A-17" edge="1">
          <mxGeometry relative="1" as="geometry" />
        </mxCell>
        <mxCell id="H5RYmZ8kcxVcwlqUMl1A-33" value="" style="edgeStyle=none;rounded=0;orthogonalLoop=1;jettySize=auto;html=1;startArrow=classic;startFill=1;endArrow=none;endFill=0;" parent="1" source="H5RYmZ8kcxVcwlqUMl1A-6" target="H5RYmZ8kcxVcwlqUMl1A-16" edge="1">
          <mxGeometry relative="1" as="geometry" />
        </mxCell>
        <mxCell id="H5RYmZ8kcxVcwlqUMl1A-6" value="ENTRIES" style="rounded=0;whiteSpace=wrap;html=1;" parent="1" vertex="1">
          <mxGeometry x="20" y="624" width="120" height="60" as="geometry" />
        </mxCell>
        <mxCell id="H5RYmZ8kcxVcwlqUMl1A-39" value="" style="edgeStyle=none;rounded=0;orthogonalLoop=1;jettySize=auto;html=1;startArrow=classic;startFill=1;endArrow=classic;endFill=1;" parent="1" source="H5RYmZ8kcxVcwlqUMl1A-6" target="H5RYmZ8kcxVcwlqUMl1A-15" edge="1">
          <mxGeometry relative="1" as="geometry" />
        </mxCell>
        <mxCell id="H5RYmZ8kcxVcwlqUMl1A-25" value="" style="edgeStyle=none;rounded=0;orthogonalLoop=1;jettySize=auto;html=1;" parent="1" source="H5RYmZ8kcxVcwlqUMl1A-8" target="H5RYmZ8kcxVcwlqUMl1A-13" edge="1">
          <mxGeometry relative="1" as="geometry" />
        </mxCell>
        <mxCell id="H5RYmZ8kcxVcwlqUMl1A-8" value="ADD CONTACT FORM&lt;br&gt;&amp;nbsp;ENTRIES" style="rounded=0;whiteSpace=wrap;html=1;" parent="1" vertex="1">
          <mxGeometry x="-10" y="144" width="120" height="60" as="geometry" />
        </mxCell>
        <mxCell id="H5RYmZ8kcxVcwlqUMl1A-22" value="" style="rounded=0;orthogonalLoop=1;jettySize=auto;html=1;" parent="1" source="H5RYmZ8kcxVcwlqUMl1A-9" target="H5RYmZ8kcxVcwlqUMl1A-12" edge="1">
          <mxGeometry relative="1" as="geometry" />
        </mxCell>
        <mxCell id="H5RYmZ8kcxVcwlqUMl1A-9" value="USER LOGIN" style="rounded=0;whiteSpace=wrap;html=1;" parent="1" vertex="1">
          <mxGeometry x="-260" y="155" width="120" height="60" as="geometry" />
        </mxCell>
        <mxCell id="H5RYmZ8kcxVcwlqUMl1A-10" value="USER REGISTRATION FORM" style="rounded=0;whiteSpace=wrap;html=1;" parent="1" vertex="1">
          <mxGeometry x="-440" y="284" width="120" height="60" as="geometry" />
        </mxCell>
        <mxCell id="H5RYmZ8kcxVcwlqUMl1A-24" value="" style="rounded=0;orthogonalLoop=1;jettySize=auto;html=1;endArrow=none;endFill=0;startArrow=classic;startFill=1;" parent="1" source="H5RYmZ8kcxVcwlqUMl1A-12" target="H5RYmZ8kcxVcwlqUMl1A-2" edge="1">
          <mxGeometry relative="1" as="geometry" />
        </mxCell>
        <mxCell id="H5RYmZ8kcxVcwlqUMl1A-12" value="USER LOGIN" style="ellipse;whiteSpace=wrap;html=1;" parent="1" vertex="1">
          <mxGeometry x="-130" y="284" width="80" height="50" as="geometry" />
        </mxCell>
        <mxCell id="H5RYmZ8kcxVcwlqUMl1A-26" value="" style="edgeStyle=none;rounded=0;orthogonalLoop=1;jettySize=auto;html=1;" parent="1" source="H5RYmZ8kcxVcwlqUMl1A-13" target="H5RYmZ8kcxVcwlqUMl1A-2" edge="1">
          <mxGeometry relative="1" as="geometry" />
        </mxCell>
        <mxCell id="H5RYmZ8kcxVcwlqUMl1A-13" value="CONTACT FORM" style="ellipse;whiteSpace=wrap;html=1;" parent="1" vertex="1">
          <mxGeometry x="-18" y="264" width="80" height="50" as="geometry" />
        </mxCell>
        <mxCell id="H5RYmZ8kcxVcwlqUMl1A-40" value="" style="edgeStyle=none;rounded=0;orthogonalLoop=1;jettySize=auto;html=1;startArrow=classic;startFill=1;endArrow=classic;endFill=1;" parent="1" source="H5RYmZ8kcxVcwlqUMl1A-15" target="H5RYmZ8kcxVcwlqUMl1A-2" edge="1">
          <mxGeometry relative="1" as="geometry" />
        </mxCell>
        <mxCell id="H5RYmZ8kcxVcwlqUMl1A-15" value="EDIT / DELETE ENTRIES" style="ellipse;whiteSpace=wrap;html=1;" parent="1" vertex="1">
          <mxGeometry x="-120" y="460" width="80" height="50" as="geometry" />
        </mxCell>
        <mxCell id="H5RYmZ8kcxVcwlqUMl1A-34" value="" style="edgeStyle=none;rounded=0;orthogonalLoop=1;jettySize=auto;html=1;startArrow=classic;startFill=1;endArrow=none;endFill=0;" parent="1" source="H5RYmZ8kcxVcwlqUMl1A-16" target="H5RYmZ8kcxVcwlqUMl1A-2" edge="1">
          <mxGeometry relative="1" as="geometry" />
        </mxCell>
        <mxCell id="H5RYmZ8kcxVcwlqUMl1A-16" value="VIEW ENTRIES" style="ellipse;whiteSpace=wrap;html=1;" parent="1" vertex="1">
          <mxGeometry x="-10" y="480" width="80" height="50" as="geometry" />
        </mxCell>
        <mxCell id="H5RYmZ8kcxVcwlqUMl1A-32" value="" style="edgeStyle=none;rounded=0;orthogonalLoop=1;jettySize=auto;html=1;startArrow=classic;startFill=1;endArrow=classic;endFill=1;entryX=1;entryY=0.75;entryDx=0;entryDy=0;" parent="1" source="H5RYmZ8kcxVcwlqUMl1A-17" target="H5RYmZ8kcxVcwlqUMl1A-2" edge="1">
          <mxGeometry relative="1" as="geometry" />
        </mxCell>
        <mxCell id="H5RYmZ8kcxVcwlqUMl1A-17" value="EDIT / DELETE USERS" style="ellipse;whiteSpace=wrap;html=1;" parent="1" vertex="1">
          <mxGeometry x="90" y="450" width="80" height="50" as="geometry" />
        </mxCell>
        <mxCell id="H5RYmZ8kcxVcwlqUMl1A-29" value="" style="edgeStyle=none;rounded=0;orthogonalLoop=1;jettySize=auto;html=1;startArrow=classic;startFill=1;endArrow=none;endFill=0;" parent="1" source="H5RYmZ8kcxVcwlqUMl1A-18" target="H5RYmZ8kcxVcwlqUMl1A-2" edge="1">
          <mxGeometry relative="1" as="geometry" />
        </mxCell>
        <mxCell id="H5RYmZ8kcxVcwlqUMl1A-30" value="" style="edgeStyle=none;rounded=0;orthogonalLoop=1;jettySize=auto;html=1;startArrow=none;startFill=0;endArrow=classic;endFill=1;" parent="1" source="H5RYmZ8kcxVcwlqUMl1A-18" target="H5RYmZ8kcxVcwlqUMl1A-4" edge="1">
          <mxGeometry relative="1" as="geometry" />
        </mxCell>
        <mxCell id="H5RYmZ8kcxVcwlqUMl1A-18" value="VIEW USERS" style="ellipse;whiteSpace=wrap;html=1;" parent="1" vertex="1">
          <mxGeometry x="130" y="370" width="90" height="50" as="geometry" />
        </mxCell>
        <mxCell id="H5RYmZ8kcxVcwlqUMl1A-28" value="" style="edgeStyle=none;rounded=0;orthogonalLoop=1;jettySize=auto;html=1;startArrow=classic;startFill=1;endArrow=none;endFill=0;" parent="1" source="H5RYmZ8kcxVcwlqUMl1A-19" target="H5RYmZ8kcxVcwlqUMl1A-2" edge="1">
          <mxGeometry relative="1" as="geometry" />
        </mxCell>
        <mxCell id="H5RYmZ8kcxVcwlqUMl1A-19" value="SEARCH ENTRIES" style="ellipse;whiteSpace=wrap;html=1;" parent="1" vertex="1">
          <mxGeometry x="95" y="294" width="80" height="50" as="geometry" />
        </mxCell>
        <mxCell id="H5RYmZ8kcxVcwlqUMl1A-38" value="" style="edgeStyle=none;rounded=0;orthogonalLoop=1;jettySize=auto;html=1;startArrow=none;startFill=0;endArrow=classic;endFill=1;" parent="1" source="H5RYmZ8kcxVcwlqUMl1A-35" target="H5RYmZ8kcxVcwlqUMl1A-2" edge="1">
          <mxGeometry relative="1" as="geometry" />
        </mxCell>
        <mxCell id="H5RYmZ8kcxVcwlqUMl1A-35" value="REGISTER USER" style="ellipse;whiteSpace=wrap;html=1;" parent="1" vertex="1">
          <mxGeometry x="-210" y="339" width="80" height="50" as="geometry" />
        </mxCell>
        <mxCell id="H5RYmZ8kcxVcwlqUMl1A-43" value="Task Name" style="ellipse;whiteSpace=wrap;html=1;" parent="1" vertex="1">
          <mxGeometry x="-25" y="772" width="94" height="50" as="geometry" />
        </mxCell>
        <mxCell id="H5RYmZ8kcxVcwlqUMl1A-44" value="Document Name" style="rounded=0;whiteSpace=wrap;html=1;" parent="1" vertex="1">
          <mxGeometry x="95" y="772" width="110" height="50" as="geometry" />
        </mxCell>
        <mxCell id="H5RYmZ8kcxVcwlqUMl1A-45" value="&lt;b&gt;&lt;font style=&quot;font-size: 23px&quot; color=&quot;#0000ff&quot;&gt;KEY&lt;/font&gt;&lt;/b&gt;" style="text;html=1;strokeColor=none;fillColor=none;align=center;verticalAlign=middle;whiteSpace=wrap;rounded=0;" parent="1" vertex="1">
          <mxGeometry x="-31" y="722" width="74" height="40" as="geometry" />
        </mxCell>
        <mxCell id="H5RYmZ8kcxVcwlqUMl1A-46" value="Information Flow" style="endArrow=classic;html=1;" parent="1" edge="1">
          <mxGeometry width="50" height="50" relative="1" as="geometry">
            <mxPoint x="230" y="800" as="sourcePoint" />
            <mxPoint x="344" y="780" as="targetPoint" />
          </mxGeometry>
        </mxCell>
        <mxCell id="H5RYmZ8kcxVcwlqUMl1A-48" value="System Boundary" style="endArrow=none;dashed=1;html=1;edgeStyle=orthogonalEdgeStyle;elbow=vertical;curved=1;" parent="1" edge="1">
          <mxGeometry width="50" height="50" relative="1" as="geometry">
            <mxPoint x="374" y="800" as="sourcePoint" />
            <mxPoint x="484" y="770" as="targetPoint" />
          </mxGeometry>
        </mxCell>
        <mxCell id="H5RYmZ8kcxVcwlqUMl1A-50" value="PORTFOLIO WEBSITE IFD Diagram" style="text;strokeColor=none;fillColor=none;html=1;fontSize=24;fontStyle=1;verticalAlign=middle;align=center;" parent="1" vertex="1">
          <mxGeometry x="-76" y="39" width="100" height="40" as="geometry" />
        </mxCell>
        <mxCell id="-q47oKd1JQudNe9BDdFH-1" value="" style="endArrow=classic;html=1;" parent="1" target="H5RYmZ8kcxVcwlqUMl1A-35" edge="1">
          <mxGeometry width="50" height="50" relative="1" as="geometry">
            <mxPoint x="-320" y="314" as="sourcePoint" />
            <mxPoint x="-270" y="264" as="targetPoint" />
          </mxGeometry>
        </mxCell>
        <mxCell id="-q47oKd1JQudNe9BDdFH-2" style="edgeStyle=none;rounded=0;orthogonalLoop=1;jettySize=auto;html=1;exitX=0.5;exitY=0;exitDx=0;exitDy=0;startArrow=classic;startFill=1;endArrow=none;endFill=0;" parent="1" source="H5RYmZ8kcxVcwlqUMl1A-17" target="H5RYmZ8kcxVcwlqUMl1A-17" edge="1">
          <mxGeometry relative="1" as="geometry" />
        </mxCell>
        <mxCell id="g5TiDb2rSoXXwQeDszKe-1" value="SEARCH USERS" style="ellipse;whiteSpace=wrap;html=1;" vertex="1" parent="1">
          <mxGeometry x="-190" y="410" width="80" height="50" as="geometry" />
        </mxCell>
        <mxCell id="g5TiDb2rSoXXwQeDszKe-2" value="" style="edgeStyle=none;rounded=0;orthogonalLoop=1;jettySize=auto;html=1;startArrow=classic;startFill=1;endArrow=none;endFill=0;entryX=0;entryY=0.5;entryDx=0;entryDy=0;" edge="1" parent="1" target="H5RYmZ8kcxVcwlqUMl1A-2">
          <mxGeometry relative="1" as="geometry">
            <mxPoint x="-110" y="430" as="sourcePoint" />
            <mxPoint x="2.2699999999999996" y="447.7528169014085" as="targetPoint" />
          </mxGeometry>
        </mxCell>
        <mxCell id="g5TiDb2rSoXXwQeDszKe-3" value="ENTRY SEARCH/RESULT" style="rounded=0;whiteSpace=wrap;html=1;" vertex="1" parent="1">
          <mxGeometry x="250" y="189" width="120" height="60" as="geometry" />
        </mxCell>
      </root>
    </mxGraphModel>
  </diagram>
</mxfile>
